<svg width="56" height="68" viewBox="0 0 56 68" fill="none" xmlns="http://www.w3.org/2000/svg">
<path d="M2.88995 24.9968C-2.90326 34.9728 0.779593 50.1118 7.18594 59.2912C10.3837 63.8804 13.6213 67.9998 18.0556 67.9998C18.1392 67.9998 18.223 67.9983 18.3088 67.9949C20.3922 67.9124 21.8978 67.2759 23.3534 66.6608C24.9877 65.9697 26.6779 65.2551 29.3291 65.2551C31.8513 65.2551 33.4608 65.9465 35.0174 66.6149C36.5514 67.2735 38.1316 67.9548 40.4664 67.9113C45.4613 67.819 48.5281 63.3738 51.2339 59.4524C54.0573 55.3579 55.4737 51.3824 55.9516 49.8632L55.9709 49.8028C56.0619 49.5328 55.9334 49.2381 55.6725 49.1192C55.6653 49.1159 55.6388 49.105 55.6314 49.1019C54.7518 48.7449 47.0361 45.3483 46.955 36.0904C46.8797 28.569 52.7432 24.5859 53.9192 23.864L53.974 23.8301C54.1014 23.7488 54.1901 23.6197 54.2202 23.4721C54.2503 23.3247 54.2189 23.1713 54.1335 23.0474C50.0862 17.1699 43.883 16.2841 41.3855 16.1776C41.0231 16.1417 40.649 16.1236 40.2734 16.1236C37.3401 16.1236 34.5301 17.223 32.2725 18.1063C30.7142 18.7161 29.3682 19.2427 28.4398 19.2427C27.3967 19.2427 26.043 18.7096 24.4755 18.0925C22.3793 17.2669 20.0033 16.3314 17.4881 16.3314C17.4281 16.3314 17.369 16.3321 17.3109 16.3332C11.4626 16.4186 5.93652 19.7388 2.88995 24.9968Z" fill="black"/>
<path d="M41.3907 0.000428386C37.8492 0.143563 33.6008 2.30686 31.0615 5.25828C28.9035 7.73906 26.7954 11.8752 27.3508 16.0444C27.3857 16.3053 27.5995 16.5066 27.864 16.5269C28.103 16.5454 28.347 16.5548 28.5901 16.555C32.053 16.555 35.7887 14.6539 38.3398 11.5928C41.0249 8.36042 42.3826 4.2122 41.9719 0.496494C41.9396 0.20532 41.6814 -0.0109421 41.3907 0.000428386Z" fill="black"/>
</svg>
