<svg width="18" height="24" viewBox="0 0 18 24" fill="none" xmlns="http://www.w3.org/2000/svg">
<path d="M17 18H18V17H17V18ZM1 18V17H0V18H1ZM1 20H0V21H1V20ZM17 20V21H18V20H17ZM12 10C12 10.5523 12.4477 11 13 11C13.5523 11 14 10.5523 14 10H12ZM4 10C4 10.5523 4.44772 11 5 11C5.55228 11 6 10.5523 6 10H4ZM2 8H16V6H2V8ZM16 8H18C18 6.89543 17.1046 6 16 6V8ZM16 8V22H18V8H16ZM16 22V24C17.1046 24 18 23.1046 18 22H16ZM16 22H2V24H16V22ZM2 22H0C0 23.1046 0.895431 24 2 24V22ZM2 22V8H0V22H2ZM2 8V6C0.89543 6 0 6.89543 0 8H2ZM17 17H1V19H17V17ZM0 18V20H2V18H0ZM1 21H17V19H1V21ZM18 20V18H16V20H18ZM14 10V5H12V10H14ZM14 5C14 2.23858 11.7614 0 9 0V2C10.6569 2 12 3.34315 12 5H14ZM9 0C6.23858 0 4 2.23858 4 5H6C6 3.34315 7.34315 2 9 2V0ZM4 5V10H6V5H4Z" fill="#1434E1"/>
</svg>
