<svg width="21" height="20" viewBox="0 0 21 20" fill="none" xmlns="http://www.w3.org/2000/svg">
<path d="M0.375305 4.21913C-0.055957 4.56414 -0.125878 5.19343 0.219131 5.6247C0.564141 6.05596 1.19343 6.12588 1.6247 5.78087L0.375305 4.21913ZM6 1L6.90286 1.42993C7.10322 1.00918 6.98638 0.505806 6.62117 0.216326C6.25596 -0.0731546 5.73921 -0.0719909 5.3753 0.219131L6 1ZM0 15C0 15.5523 0.447715 16 1 16C1.55228 16 2 15.5523 2 15H0ZM10.7521 1.94868C11.2761 1.77404 11.5592 1.20772 11.3846 0.683772C11.2099 0.159829 10.6436 -0.123331 10.1197 0.0513167L10.7521 1.94868ZM13.0257 2.93762C12.9913 2.38641 12.5165 1.9675 11.9653 2.00195C11.4141 2.0364 10.9951 2.51117 11.0296 3.06238L13.0257 2.93762ZM17.7521 1.94868C18.2761 1.77404 18.5592 1.20772 18.3846 0.683772C18.2099 0.159829 17.6436 -0.123331 17.1197 0.0513167L17.7521 1.94868ZM20.0257 2.93762C19.9913 2.38641 19.5165 1.9675 18.9653 2.00195C18.4141 2.0364 17.9951 2.51117 18.0296 3.06238L20.0257 2.93762ZM4.62861 14.0715C4.11583 14.2766 3.86641 14.8586 4.07152 15.3714C4.27664 15.8842 4.85861 16.1336 5.37139 15.9285L4.62861 14.0715ZM15.8356 14.9864C16.3804 15.0772 16.8956 14.7092 16.9864 14.1644C17.0772 13.6196 16.7092 13.1044 16.1644 13.0136L15.8356 14.9864ZM16.8949 17.9945C17.4442 18.0525 17.9364 17.6543 17.9945 17.1051C18.0525 16.5558 17.6543 16.0636 17.1051 16.0055L16.8949 17.9945ZM1.5928 18.0867C1.08837 18.3116 0.86177 18.9028 1.08666 19.4072C1.31155 19.9116 1.90278 20.1382 2.4072 19.9133L1.5928 18.0867ZM1.6247 5.78087L6.6247 1.78087L5.3753 0.219131L0.375305 4.21913L1.6247 5.78087ZM6 1C5.09714 0.570066 5.09709 0.570164 5.09703 0.570301C5.09698 0.5704 5.0969 0.570577 5.0968 0.570775C5.09661 0.571171 5.09635 0.571726 5.09601 0.57244C5.09533 0.573868 5.09435 0.575929 5.09308 0.578615C5.09052 0.583988 5.08679 0.591863 5.0819 0.602171C5.07214 0.622788 5.05779 0.653144 5.03916 0.692704C5.0019 0.771821 4.94751 0.887772 4.87844 1.03628C4.74031 1.33325 4.54337 1.76061 4.30721 2.28409C3.8352 3.33039 3.20506 4.76388 2.57415 6.3096C1.94427 7.85281 1.30827 9.52091 0.828126 11.0334C0.359036 12.511 0 13.955 0 15H2C2 14.295 2.26596 13.114 2.73437 11.6385C3.19173 10.1978 3.80573 8.58469 4.42585 7.0654C5.04494 5.54862 5.6648 4.13836 6.13029 3.10653C6.36288 2.59095 6.55657 2.17065 6.69188 1.87974C6.75952 1.7343 6.81256 1.62124 6.84854 1.54485C6.86653 1.50665 6.88025 1.47762 6.88941 1.45828C6.89399 1.44862 6.89742 1.44138 6.89968 1.43663C6.9008 1.43426 6.90164 1.43251 6.90217 1.43139C6.90243 1.43083 6.90263 1.43043 6.90274 1.43018C6.9028 1.43006 6.90283 1.43 6.90286 1.42994C6.90287 1.42992 6.90286 1.42993 6 1ZM10.1197 0.0513167C8.98801 0.428538 8.20582 1.47828 7.67855 2.46691C7.12663 3.50175 6.7272 4.71169 6.46576 5.75746L8.40604 6.24254C8.6446 5.28831 8.99516 4.24825 9.44325 3.40809C9.91598 2.52172 10.3838 2.07146 10.7521 1.94868L10.1197 0.0513167ZM6.46576 5.75746C6.22096 6.73665 5.89596 8.15681 6.03287 9.36281C6.10319 9.98215 6.3068 10.6637 6.81778 11.1939C7.35081 11.747 8.08593 12 8.9359 12V10C8.48999 10 8.32717 9.87799 8.25785 9.80606C8.16648 9.71125 8.06332 9.51785 8.02011 9.13719C7.92996 8.34319 8.15084 7.26335 8.40604 6.24254L6.46576 5.75746ZM8.9359 12C10.2879 12 11.2106 11.2157 11.7876 10.2714C12.3456 9.35805 12.646 8.20828 12.8158 7.1599C12.9885 6.09394 13.04 5.04066 13.0496 4.26233C13.0544 3.87096 13.0487 3.54404 13.0417 3.31333C13.0381 3.19788 13.0343 3.10624 13.0313 3.04236C13.0297 3.01042 13.0284 2.98539 13.0275 2.96777C13.027 2.95897 13.0266 2.95201 13.0263 2.94696C13.0261 2.94444 13.026 2.9424 13.0259 2.94084C13.0259 2.94006 13.0258 2.9394 13.0258 2.93886C13.0258 2.93859 13.0257 2.93828 13.0257 2.93815C13.0257 2.93787 13.0257 2.93762 12.0277 3C11.0296 3.06238 11.0296 3.06219 11.0296 3.06203C11.0296 3.06202 11.0296 3.06189 11.0296 3.06187C11.0296 3.06182 11.0296 3.06189 11.0296 3.06208C11.0296 3.06246 11.0297 3.06331 11.0297 3.06463C11.0299 3.06728 11.0301 3.0718 11.0305 3.07812C11.0312 3.09078 11.0323 3.11068 11.0335 3.13732C11.0361 3.19063 11.0394 3.27087 11.0426 3.37417C11.0489 3.58096 11.0542 3.87904 11.0497 4.23767C11.0408 4.95934 10.9928 5.90606 10.8415 6.8401C10.6874 7.79172 10.4394 8.64195 10.0809 9.22865C9.74144 9.78429 9.37973 10 8.9359 10V12ZM17.1197 0.0513167C15.988 0.428538 15.2058 1.47828 14.6785 2.46691C14.1266 3.50175 13.7272 4.71169 13.4658 5.75746L15.406 6.24254C15.6446 5.28831 15.9952 4.24825 16.4433 3.40809C16.916 2.52172 17.3838 2.07146 17.7521 1.94868L17.1197 0.0513167ZM13.4658 5.75746C13.221 6.73665 12.896 8.15681 13.0329 9.36281C13.1032 9.98215 13.3068 10.6637 13.8178 11.1939C14.3508 11.747 15.0859 12 15.9359 12V10C15.49 10 15.3272 9.87799 15.2578 9.80606C15.1665 9.71125 15.0633 9.51785 15.0201 9.13719C14.93 8.34319 15.1508 7.26335 15.406 6.24254L13.4658 5.75746ZM15.9359 12C17.2879 12 18.2106 11.2157 18.7876 10.2714C19.3456 9.35805 19.646 8.20828 19.8158 7.1599C19.9885 6.09394 20.04 5.04066 20.0496 4.26233C20.0544 3.87096 20.0487 3.54404 20.0417 3.31333C20.0381 3.19788 20.0343 3.10624 20.0313 3.04236C20.0297 3.01042 20.0284 2.98539 20.0275 2.96777C20.027 2.95897 20.0266 2.95201 20.0263 2.94696C20.0261 2.94444 20.026 2.9424 20.0259 2.94084C20.0259 2.94006 20.0258 2.9394 20.0258 2.93886C20.0258 2.93859 20.0257 2.93828 20.0257 2.93815C20.0257 2.93787 20.0257 2.93762 19.0277 3C18.0296 3.06238 18.0296 3.06219 18.0296 3.06203C18.0296 3.06202 18.0296 3.06189 18.0296 3.06187C18.0296 3.06182 18.0296 3.06189 18.0296 3.06208C18.0296 3.06246 18.0297 3.06331 18.0297 3.06463C18.0299 3.06728 18.0301 3.0718 18.0305 3.07812C18.0312 3.09078 18.0323 3.11068 18.0335 3.13732C18.0361 3.19063 18.0394 3.27087 18.0426 3.37417C18.0489 3.58096 18.0542 3.87904 18.0497 4.23767C18.0408 4.95934 17.9928 5.90606 17.8415 6.8401C17.6874 7.79172 17.4394 8.64195 17.0809 9.22865C16.7414 9.78429 16.3797 10 15.9359 10V12ZM5 15C5.37139 15.9285 5.37114 15.9286 5.37092 15.9287C5.37087 15.9287 5.37066 15.9288 5.37055 15.9288C5.37035 15.9289 5.37022 15.9289 5.37017 15.929C5.37006 15.929 5.37026 15.9289 5.37075 15.9287C5.37173 15.9283 5.37391 15.9275 5.37726 15.9262C5.38396 15.9236 5.39537 15.9192 5.41137 15.9131C5.44336 15.901 5.49367 15.8824 5.56133 15.8583C5.69668 15.8102 5.90122 15.7408 6.16722 15.6595C6.6996 15.4968 7.47583 15.2876 8.43429 15.1079C10.3557 14.7476 12.9829 14.5109 15.8356 14.9864L16.1644 13.0136C13.0171 12.4891 10.1443 12.7524 8.06571 13.1421C7.02417 13.3374 6.1754 13.5657 5.58278 13.7468C5.28628 13.8374 5.05332 13.9163 4.8918 13.9737C4.81102 14.0024 4.74805 14.0257 4.70387 14.0424C4.68178 14.0508 4.66438 14.0575 4.6518 14.0624C4.6455 14.0648 4.64042 14.0668 4.63655 14.0684C4.63461 14.0691 4.63298 14.0698 4.63166 14.0703C4.631 14.0706 4.63041 14.0708 4.6299 14.071C4.62965 14.0711 4.62933 14.0712 4.6292 14.0713C4.62889 14.0714 4.62861 14.0715 5 15ZM17.1051 16.0055C12.7192 15.5422 8.85566 16.0583 6.09038 16.6882C4.70628 17.0036 3.59266 17.3485 2.82048 17.6165C2.43425 17.7506 2.13298 17.8656 1.92553 17.9483C1.82178 17.9897 1.74146 18.023 1.68565 18.0466C1.65774 18.0584 1.63596 18.0678 1.62044 18.0745C1.61268 18.0779 1.60648 18.0806 1.60187 18.0826C1.59956 18.0837 1.59765 18.0845 1.59614 18.0852C1.59538 18.0855 1.59473 18.0858 1.59417 18.0861C1.59389 18.0862 1.59355 18.0863 1.59341 18.0864C1.59309 18.0865 1.5928 18.0867 2 19C2.4072 19.9133 2.40696 19.9134 2.40674 19.9135C2.4067 19.9136 2.4065 19.9136 2.40642 19.9137C2.40626 19.9138 2.4062 19.9138 2.40623 19.9138C2.4063 19.9137 2.40677 19.9135 2.40762 19.9132C2.40932 19.9124 2.41258 19.911 2.41737 19.9089C2.42697 19.9047 2.44273 19.8979 2.4645 19.8887C2.50806 19.8703 2.57568 19.8422 2.66627 19.8061C2.84749 19.7339 3.12044 19.6295 3.47639 19.5059C4.18859 19.2587 5.23122 18.9352 6.53462 18.6383C9.14434 18.0438 12.7808 17.5598 16.8949 17.9945L17.1051 16.0055Z" fill="#1434E1"/>
</svg>
